<svg xmlns="http://www.w3.org/2000/svg" xmlns:xlink="http://www.w3.org/1999/xlink" width="1921" zoomAndPan="magnify" viewBox="0 0 1440.75 321.749992" height="429" preserveAspectRatio="xMidYMid meet" version="1.2"><defs/><g id="018dbd89c4"><g style="fill:#ffffff;fill-opacity:1;"><g transform="translate(203.60938, 261.443275)"><path style="stroke:none" d="M 108.65625 -197.875 C 137.882812 -197.875 162.613281 -188.101562 182.84375 -168.5625 C 203.070312 -149.019531 213.1875 -125.148438 213.1875 -96.953125 C 213.1875 -68.835938 203.070312 -44.984375 182.84375 -25.390625 C 162.613281 -5.804688 137.882812 3.984375 108.65625 3.984375 C 79.507812 3.984375 54.820312 -5.804688 34.59375 -25.390625 C 14.363281 -44.984375 4.25 -68.835938 4.25 -96.953125 C 4.25 -125.148438 14.363281 -149.019531 34.59375 -168.5625 C 54.820312 -188.101562 79.507812 -197.875 108.65625 -197.875 Z M 108.65625 -42.171875 C 123.65625 -42.171875 136.164062 -47.421875 146.1875 -57.921875 C 156.21875 -68.421875 161.234375 -81.429688 161.234375 -96.953125 C 161.234375 -112.460938 156.238281 -125.46875 146.25 -135.96875 C 136.269531 -146.46875 123.738281 -151.71875 108.65625 -151.71875 C 93.644531 -151.71875 81.144531 -146.46875 71.15625 -135.96875 C 61.175781 -125.46875 56.1875 -112.460938 56.1875 -96.953125 C 56.1875 -81.429688 61.175781 -68.421875 71.15625 -57.921875 C 81.144531 -47.421875 93.644531 -42.171875 108.65625 -42.171875 Z M 108.65625 -42.171875 "/></g></g><g style="fill:#ffffff;fill-opacity:1;"><g transform="translate(417.876962, 261.443275)"><path style="stroke:none" d="M 79.078125 -99.265625 C 72.554688 -99.265625 67.195312 -97.226562 63 -93.15625 C 58.800781 -89.082031 56.703125 -83.617188 56.703125 -76.765625 L 56.703125 -6.421875 C 56.703125 -4.535156 56.101562 -2.992188 54.90625 -1.796875 C 53.707031 -0.597656 52.164062 0 50.28125 0 L 15.296875 0 C 13.410156 0 11.867188 -0.597656 10.671875 -1.796875 C 9.472656 -2.992188 8.875 -4.535156 8.875 -6.421875 L 8.875 -130.5 C 8.875 -132.382812 9.472656 -133.925781 10.671875 -135.125 C 11.867188 -136.332031 13.410156 -136.9375 15.296875 -136.9375 L 50.28125 -136.9375 C 52.164062 -136.9375 53.707031 -136.332031 54.90625 -135.125 C 56.101562 -133.925781 56.703125 -132.382812 56.703125 -130.5 L 56.703125 -120.609375 C 61.078125 -127.203125 66.628906 -132.210938 73.359375 -135.640625 C 80.085938 -139.078125 87.820312 -140.796875 96.5625 -140.796875 C 113.789062 -140.796875 126.835938 -135.671875 135.703125 -125.421875 C 144.578125 -115.179688 149.015625 -100.289062 149.015625 -80.75 L 149.015625 -6.421875 C 149.015625 -4.535156 148.414062 -2.992188 147.21875 -1.796875 C 146.019531 -0.597656 144.476562 0 142.59375 0 L 107.625 0 C 105.738281 0 104.191406 -0.597656 102.984375 -1.796875 C 101.785156 -2.992188 101.1875 -4.535156 101.1875 -6.421875 L 101.1875 -76.765625 C 101.1875 -83.617188 99.128906 -89.082031 95.015625 -93.15625 C 90.898438 -97.226562 85.585938 -99.265625 79.078125 -99.265625 Z M 79.078125 -99.265625 "/></g></g><g style="fill:#ffffff;fill-opacity:1;"><g transform="translate(571.198004, 261.443275)"><path style="stroke:none" d="M 53.609375 -86.140625 L 99 -86.140625 C 98.0625 -91.460938 95.515625 -95.789062 91.359375 -99.125 C 87.203125 -102.46875 82.335938 -104.140625 76.765625 -104.140625 C 71.273438 -104.140625 66.363281 -102.46875 62.03125 -99.125 C 57.707031 -95.789062 54.898438 -91.460938 53.609375 -86.140625 Z M 139.640625 -22.375 C 134.148438 -14.40625 125.960938 -8.019531 115.078125 -3.21875 C 104.191406 1.582031 92.273438 3.984375 79.328125 3.984375 C 57.472656 3.984375 39.535156 -2.804688 25.515625 -16.390625 C 11.503906 -29.972656 4.5 -47.097656 4.5 -67.765625 C 4.5 -89.191406 11.078125 -106.71875 24.234375 -120.34375 C 37.390625 -133.976562 54.640625 -140.796875 75.984375 -140.796875 C 96.554688 -140.796875 113.269531 -134.257812 126.125 -121.1875 C 138.988281 -108.113281 145.421875 -92.0625 145.421875 -73.03125 L 145.421875 -65.1875 C 145.421875 -62.1875 144.773438 -59.785156 143.484375 -57.984375 C 142.203125 -56.179688 140.363281 -55.28125 137.96875 -55.28125 L 52.59375 -55.28125 C 53.875 -48.945312 57 -43.9375 61.96875 -40.25 C 66.945312 -36.5625 72.945312 -34.71875 79.96875 -34.71875 C 84.6875 -34.71875 89.035156 -35.570312 93.015625 -37.28125 C 97.003906 -39 100.84375 -41.703125 104.53125 -45.390625 C 106.164062 -47.015625 107.859375 -47.910156 109.609375 -48.078125 C 111.367188 -48.253906 113.191406 -47.742188 115.078125 -46.546875 L 138.21875 -31.375 C 139.851562 -30.34375 140.773438 -28.96875 140.984375 -27.25 C 141.203125 -25.539062 140.753906 -23.914062 139.640625 -22.375 Z M 139.640625 -22.375 "/></g></g><g style="fill:#ffffff;fill-opacity:1;"><g transform="translate(717.961462, 261.443275)"><path style="stroke:none" d="M 78.8125 -73.796875 L 116.484375 -73.796875 L 97.59375 -131.15625 Z M 65.3125 -32.40625 L 56.703125 -6.046875 C 56.097656 -4.066406 55.109375 -2.5625 53.734375 -1.53125 C 52.367188 -0.507812 50.660156 0 48.609375 0 L 9.765625 0 C 6.679688 0 4.5625 -1.003906 3.40625 -3.015625 C 2.25 -5.035156 2.3125 -7.71875 3.59375 -11.0625 L 69.171875 -186.5625 C 69.941406 -188.789062 71.117188 -190.523438 72.703125 -191.765625 C 74.296875 -193.015625 75.992188 -193.640625 77.796875 -193.640625 L 120.34375 -193.640625 C 122.0625 -193.640625 123.710938 -193.015625 125.296875 -191.765625 C 126.878906 -190.523438 128.054688 -188.789062 128.828125 -186.5625 L 194.40625 -11.3125 C 195.695312 -8.050781 195.71875 -5.347656 194.46875 -3.203125 C 193.226562 -1.066406 191.109375 0 188.109375 0 L 146.96875 0 C 144.820312 0 143.101562 -0.46875 141.8125 -1.40625 C 140.53125 -2.351562 139.546875 -3.898438 138.859375 -6.046875 L 129.859375 -32.40625 Z M 65.3125 -32.40625 "/></g></g><g style="fill:#ffffff;fill-opacity:1;"><g transform="translate(912.684996, 261.443275)"><path style="stroke:none" d="M 56.0625 -68.40625 C 56.0625 -60.601562 58.738281 -53.957031 64.09375 -48.46875 C 69.445312 -42.988281 75.984375 -40.25 83.703125 -40.25 C 91.421875 -40.25 97.957031 -42.988281 103.3125 -48.46875 C 108.664062 -53.957031 111.34375 -60.601562 111.34375 -68.40625 C 111.34375 -76.207031 108.664062 -82.847656 103.3125 -88.328125 C 97.957031 -93.816406 91.421875 -96.5625 83.703125 -96.5625 C 75.984375 -96.5625 69.445312 -93.816406 64.09375 -88.328125 C 58.738281 -82.847656 56.0625 -76.207031 56.0625 -68.40625 Z M 8.875 48.21875 L 8.875 -130.5 C 8.875 -132.382812 9.472656 -133.925781 10.671875 -135.125 C 11.867188 -136.332031 13.410156 -136.9375 15.296875 -136.9375 L 50.28125 -136.9375 C 52.164062 -136.9375 53.707031 -136.332031 54.90625 -135.125 C 56.101562 -133.925781 56.703125 -132.382812 56.703125 -130.5 L 56.703125 -128.0625 C 61.160156 -132.257812 66.195312 -135.429688 71.8125 -137.578125 C 77.425781 -139.722656 83.535156 -140.796875 90.140625 -140.796875 C 109.679688 -140.796875 126.113281 -133.804688 139.4375 -119.828125 C 152.769531 -105.859375 159.4375 -88.71875 159.4375 -68.40625 C 159.4375 -48.09375 152.769531 -30.945312 139.4375 -16.96875 C 126.113281 -3 109.679688 3.984375 90.140625 3.984375 C 83.535156 3.984375 77.425781 2.910156 71.8125 0.765625 C 66.195312 -1.367188 61.160156 -4.582031 56.703125 -8.875 L 56.703125 48.21875 C 56.703125 50.101562 56.101562 51.644531 54.90625 52.84375 C 53.707031 54.039062 52.164062 54.640625 50.28125 54.640625 L 15.296875 54.640625 C 13.410156 54.640625 11.867188 54.039062 10.671875 52.84375 C 9.472656 51.644531 8.875 50.101562 8.875 48.21875 Z M 8.875 48.21875 "/></g></g><g style="fill:#ffffff;fill-opacity:1;"><g transform="translate(1073.206473, 261.443275)"><path style="stroke:none" d="M 56.0625 -68.40625 C 56.0625 -60.601562 58.738281 -53.957031 64.09375 -48.46875 C 69.445312 -42.988281 75.984375 -40.25 83.703125 -40.25 C 91.421875 -40.25 97.957031 -42.988281 103.3125 -48.46875 C 108.664062 -53.957031 111.34375 -60.601562 111.34375 -68.40625 C 111.34375 -76.207031 108.664062 -82.847656 103.3125 -88.328125 C 97.957031 -93.816406 91.421875 -96.5625 83.703125 -96.5625 C 75.984375 -96.5625 69.445312 -93.816406 64.09375 -88.328125 C 58.738281 -82.847656 56.0625 -76.207031 56.0625 -68.40625 Z M 8.875 48.21875 L 8.875 -130.5 C 8.875 -132.382812 9.472656 -133.925781 10.671875 -135.125 C 11.867188 -136.332031 13.410156 -136.9375 15.296875 -136.9375 L 50.28125 -136.9375 C 52.164062 -136.9375 53.707031 -136.332031 54.90625 -135.125 C 56.101562 -133.925781 56.703125 -132.382812 56.703125 -130.5 L 56.703125 -128.0625 C 61.160156 -132.257812 66.195312 -135.429688 71.8125 -137.578125 C 77.425781 -139.722656 83.535156 -140.796875 90.140625 -140.796875 C 109.679688 -140.796875 126.113281 -133.804688 139.4375 -119.828125 C 152.769531 -105.859375 159.4375 -88.71875 159.4375 -68.40625 C 159.4375 -48.09375 152.769531 -30.945312 139.4375 -16.96875 C 126.113281 -3 109.679688 3.984375 90.140625 3.984375 C 83.535156 3.984375 77.425781 2.910156 71.8125 0.765625 C 66.195312 -1.367188 61.160156 -4.582031 56.703125 -8.875 L 56.703125 48.21875 C 56.703125 50.101562 56.101562 51.644531 54.90625 52.84375 C 53.707031 54.039062 52.164062 54.640625 50.28125 54.640625 L 15.296875 54.640625 C 13.410156 54.640625 11.867188 54.039062 10.671875 52.84375 C 9.472656 51.644531 8.875 50.101562 8.875 48.21875 Z M 8.875 48.21875 "/></g></g></g></svg>